<svg width="24" height="19" viewBox="0 0 24 19" fill="none" xmlns="http://www.w3.org/2000/svg">
<path d="M21.75 0.714355H2.25C1.00734 0.714355 0 1.7217 0 2.96436V16.4644C0 17.707 1.00734 18.7144 2.25 18.7144H21.75C22.9927 18.7144 24 17.707 24 16.4644V2.96436C24 1.7217 22.9927 0.714355 21.75 0.714355ZM21.75 2.96436V4.87709C20.699 5.73298 19.0234 7.06386 15.4412 9.86881C14.6518 10.4898 13.0881 11.9816 12 11.9642C10.9121 11.9817 9.34786 10.4895 8.55877 9.86881C4.97719 7.06428 3.30117 5.73312 2.25 4.87709V2.96436H21.75ZM2.25 16.4644V7.76426C3.32409 8.61978 4.8473 9.82029 7.16897 11.6383C8.19352 12.4448 9.98775 14.2251 12 14.2143C14.0024 14.2251 15.7739 12.4706 16.8306 11.6387C19.1522 9.82071 20.6759 8.61987 21.75 7.76431V16.4644H2.25Z" fill="white"/>
</svg>
