<svg width="24" height="24" viewBox="0 0 24 24" fill="none" xmlns="http://www.w3.org/2000/svg">
<path d="M15.2953 9.97061C15.2953 10.9315 14.5125 11.7144 13.5516 11.7144H10.2563V8.22686H13.5516C14.5125 8.22686 15.2953 9.00967 15.2953 9.97061ZM23.625 11.7144C23.625 18.1362 18.4219 23.3394 12 23.3394C5.57812 23.3394 0.375 18.1362 0.375 11.7144C0.375 5.29248 5.57812 0.0893555 12 0.0893555C18.4219 0.0893555 23.625 5.29248 23.625 11.7144ZM17.6203 9.97061C17.6203 7.72529 15.7969 5.90186 13.5516 5.90186H7.93125V17.5269H10.2563V14.0394H13.5516C15.7969 14.0394 17.6203 12.2159 17.6203 9.97061Z" fill="white"/>
</svg>
